<svg xmlns="http://www.w3.org/2000/svg" viewBox="0 0 20 16" fill="white" stroke="none" strokeWidth="0">
  <path d="M5.95206 16.0028C2.63437 15.8259 0 13.1452 0 9.86429C0 8.97939 0.191631 8.13815 0.536615 7.37793C3.85431 7.55484 6.48868 10.2355 6.48868 13.5165C6.48868 14.4014 6.29705 15.2426 5.95206 16.0028Z" stroke="none" strokeWidth="0" />
  <path d="M9.6083 15.0967C11.4055 14.0137 12.6031 12.0745 12.6031 9.8623C12.6031 7.65014 11.4055 5.71086 9.6083 4.62793C7.81113 5.71086 6.61353 7.65014 6.61353 9.8623C6.61353 12.0745 7.81113 14.0137 9.6083 15.0967Z" stroke="none" strokeWidth="0" />
  <path d="M18.6801 7.37793C15.3624 7.55484 12.728 10.2355 12.728 13.5165C12.728 14.4014 12.9197 15.2426 13.2646 16.0028C16.5823 15.8259 19.2167 13.1452 19.2167 9.86429C19.2167 8.97939 19.0251 8.13815 18.6801 7.37793Z" stroke="none" strokeWidth="0" />
  <path d="M5.98982 3.46902C5.98982 4.10775 5.45908 4.62554 4.80439 4.62554C4.14969 4.62554 3.61896 4.10775 3.61896 3.46902C3.61896 2.83029 4.14969 2.3125 4.80439 2.3125C5.45908 2.3125 5.98982 2.83029 5.98982 3.46902Z" stroke="none" strokeWidth="0" />
  <path d="M15.7226 3.46902C15.7226 4.10775 15.1919 4.62554 14.5372 4.62554C13.8825 4.62554 13.3517 4.10775 13.3517 3.46902C13.3517 2.83029 13.8825 2.3125 14.5372 2.3125C15.1919 2.3125 15.7226 2.83029 15.7226 3.46902Z" stroke="none" strokeWidth="0" />
  <path d="M10.8563 1.15652C10.8563 1.79525 10.3256 2.31304 9.67091 2.31304C9.01621 2.31304 8.48547 1.79525 8.48547 1.15652C8.48547 0.517792 9.01621 0 9.67091 0C10.3256 0 10.8563 0.517792 10.8563 1.15652Z" stroke="none" strokeWidth="0" />
</svg>
